<?xml version="1.0" encoding="UTF-8" standalone="no"?>
<svg viewBox="0 0 50 50"
 xmlns="http://www.w3.org/2000/svg" xmlns:xlink="http://www.w3.org/1999/xlink" version="1.2" baseProfile="tiny">
<title>Qt SVG Document</title>
<desc>Generated with Qt</desc>
<defs>
</defs>
<g fill="none" stroke="black" stroke-width="1" fill-rule="evenodd" stroke-linecap="square" stroke-linejoin="bevel" >

<g fill="none" stroke="#a1a9b1" stroke-opacity="0.500008" stroke-width="1.001" stroke-linecap="square" stroke-linejoin="bevel" transform="matrix(2.5,0,0,2.5,2.5,2.5)"
font-family="Noto Sans" font-size="10" font-weight="400" font-style="normal" 
>
</g>

<g fill="none" stroke="#a1a9b1" stroke-opacity="0.500008" stroke-width="1.001" stroke-linecap="round" stroke-linejoin="miter" stroke-miterlimit="2" transform="matrix(2.5,0,0,2.5,2.5,2.5)"
font-family="Noto Sans" font-size="10" font-weight="400" font-style="normal" 
>
</g>

<g fill="none" stroke="#a1a9b1" stroke-opacity="0.500008" stroke-width="1.001" stroke-linecap="round" stroke-linejoin="miter" stroke-miterlimit="2" transform="matrix(2.5,0,0,2.5,2.5,2.5)"
font-family="Noto Sans" font-size="10" font-weight="400" font-style="normal" 
>
</g>

<g fill="#a1a9b1" fill-opacity="0.175006" stroke="#a1a9b1" stroke-opacity="0.405005" stroke-width="1.2012" stroke-linecap="round" stroke-linejoin="bevel" transform="matrix(2.5,0,0,2.5,21.5,21.5)"
font-family="Noto Sans" font-size="10" font-weight="400" font-style="normal" 
>
<rect x="0" y="0" width="2.8" height="2.8"/>
</g>

<g fill="#a1a9b1" fill-opacity="0.405005" stroke="none" transform="matrix(2.5,0,0,2.5,21.5,21.5)"
font-family="Noto Sans" font-size="10" font-weight="400" font-style="normal" 
>
<path vector-effect="none" fill-rule="evenodd" d="M2.1994,0.6006 L2.1994,-3.4006 L6.2006,0.6006 L2.1994,0.6006"/>
<path vector-effect="none" fill-rule="evenodd" d="M0.6006,2.1994 L-3.4006,2.1994 L0.6006,6.2006 L0.6006,2.1994"/>
</g>

<g fill="none" stroke="#a1a9b1" stroke-opacity="0.500008" stroke-width="1.001" stroke-linecap="square" stroke-linejoin="bevel" transform="matrix(2.5,0,0,2.5,2.5,2.5)"
font-family="Noto Sans" font-size="10" font-weight="400" font-style="normal" 
>
</g>

<g fill="none" stroke="#000000" stroke-opacity="1" stroke-width="1" stroke-linecap="square" stroke-linejoin="bevel" transform="matrix(1,0,0,1,0,0)"
font-family="Noto Sans" font-size="10" font-weight="400" font-style="normal" 
>
</g>
</g>
</svg>
